# xmcd
#
# Track frame offsets:
#	150
#	5306
#	16067
#	31768
#	51100
#	64291
#	73021
#	77395
#
# Disc length: 1265 seconds
# Revision: 0
# Processed by: cddbd v1.5.2PL0 Copyright (c) Steve Scherf et al.
# Submitted via: dBpowerAMP V12.0
#
DISCID=5404ef08
DTITLE=Julianne Hough - The Julianne Hough Holiday Collection
DYEAR=2008
DGENRE=Christmas
TTITLE0=Sound of Christmas (Instrumental)
TTITLE1=Jingle Bell Rock
TTITLE2=Feliz Navidad
TTITLE3=It Wasn't His Child - Mary Did You Know
TTITLE4=Santa Baby
TTITLE5=Rockin' Around the Christmas Tree
TTITLE6=Christmas Memories (Julianne Shares Her Christmas Memories)
TTITLE7=Have Yourself A Merry Little Christmas
EXTD=
EXTT0=
EXTT1=
EXTT2=
EXTT3=
EXTT4=
EXTT5=
EXTT6=
EXTT7=
PLAYORDER=
